<svg width="1512" height="982" viewBox="0 0 1512 982" fill="none" xmlns="http://www.w3.org/2000/svg">
<path fill-rule="evenodd" clip-rule="evenodd" d="M831.472 479.496L685.178 216.143H736.973V195H441V216.143H495.967L685.178 542.8V765.857H642.896V787H886.017V765.857H843.735V514.257L844 513.742V501.284L843.492 500.369L857.535 485.14C873.575 495.962 893.261 500.417 912.996 497.693C932.731 494.968 951.198 485.246 965.023 470.301L1096.34 327.902L1079.44 312.319L1058.21 335.334L991.589 339.769L1062.06 263.354L1045.16 247.771L974.691 324.186L973.723 257.42L994.946 234.405L978.048 218.822L846.735 361.222C832.957 376.21 824.76 395.403 823.64 415.293C822.52 435.184 828.553 454.445 840.637 469.558L831.472 479.496ZM847.229 413.731C846.062 427.35 849.591 440.714 857.223 451.571L885.825 420.554L884.856 353.789L863.633 376.804C854.19 387.07 848.397 400.111 847.229 413.731ZM908.066 328.62L909.034 395.385L951.481 349.355L950.513 282.59L908.066 328.62ZM1035 360.503L968.38 364.938L925.933 410.968L992.558 406.534L1035 360.503ZM902.723 436.137L874.121 467.154C885.56 473.882 899.166 476.32 912.646 474.055C926.126 471.789 938.657 464.96 948.125 454.718L969.348 431.703L902.723 436.137Z" fill="#1E3629"/>
</svg>
