<svg width="1512" height="982" viewBox="0 0 1512 982" fill="none" xmlns="http://www.w3.org/2000/svg">
<path fill-rule="evenodd" clip-rule="evenodd" d="M1060.68 459.172L997.858 346.079H1020.1V337H893V346.079H916.604L997.858 486.357V582.145H979.701V591.225H1084.11V582.145H1065.95V474.1L1066.06 473.879V468.529L1065.84 468.136L1071.87 461.596C1078.76 466.243 1087.22 468.157 1095.69 466.987C1104.17 465.817 1112.1 461.641 1118.03 455.224L1174.42 394.073L1167.17 387.381L1158.05 397.264L1129.44 399.169L1159.7 366.353L1152.45 359.662L1122.18 392.477L1121.77 363.805L1130.88 353.922L1123.63 347.23L1067.24 408.381C1061.32 414.818 1057.8 423.06 1057.32 431.601C1056.84 440.143 1059.43 448.415 1064.62 454.904L1060.68 459.172ZM1067.45 430.93C1066.95 436.779 1068.46 442.518 1071.74 447.18L1084.02 433.861L1083.61 405.189L1074.49 415.073C1070.44 419.481 1067.95 425.082 1067.45 430.93ZM1093.57 394.381L1093.99 423.052L1112.22 403.285L1111.8 374.614L1093.57 394.381ZM1148.09 408.073L1119.47 409.977L1101.25 429.744L1129.86 427.84L1148.09 408.073ZM1091.28 440.553L1079 453.872C1083.91 456.762 1089.75 457.808 1095.54 456.835C1101.33 455.863 1106.71 452.93 1110.78 448.532L1119.89 438.648L1091.28 440.553ZM709.47 589.694C709.47 584.27 707.937 579.789 704.873 576.252C701.808 572.478 697.8 570.592 692.849 570.592C688.135 570.592 683.184 572.596 677.997 576.605C673.047 580.614 667.153 584.741 660.316 588.986C653.715 592.995 645.7 595 636.27 595C604.208 595 579.337 586.746 561.656 570.238C544.21 553.73 535.488 528.379 535.488 494.184C535.488 422.728 568.846 387 635.563 387C647.586 387 659.845 389.948 672.339 395.843C685.07 401.739 692.849 404.687 695.678 404.687C698.507 404.687 700.865 403.272 702.751 400.442C704.637 397.376 705.58 394.429 705.58 391.599H712.299V463.408H705.226C705.226 445.485 698.154 429.449 684.009 415.299C670.1 401.15 653.951 394.075 635.563 394.075C621.418 394.075 610.691 401.739 603.383 417.068C596.075 432.161 592.421 457.277 592.421 492.415C592.421 527.317 596.075 551.961 603.383 566.347C610.927 580.732 621.889 587.925 636.27 587.925C658.902 587.925 670.218 567.762 670.218 527.435V501.258H647.94V494.184H732.809V501.258H716.189V589.694H709.47ZM324 582.619H307.333L217.513 388.061H208.672L127.693 582.619H104V589.694H164.469V582.619H136.533L157.043 533.449H228.475L252.168 582.619H231.304V589.694H324V589.7H332.665C332.665 577.94 338.233 571.744 349.091 571.744C352.906 571.744 358.775 573.802 366.699 577.918C389.882 589.973 413.213 596 436.69 596C462.808 596 483.497 589.826 498.757 577.477C514.31 564.834 523.261 546.605 525.609 522.79C526.783 510.147 525.315 499.121 521.207 489.713C519.153 485.009 517.098 480.892 515.044 477.364C512.99 473.542 509.762 469.867 505.36 466.338L494.355 457.518C491.714 455.166 487.605 452.52 482.03 449.58C476.454 446.639 472.199 444.581 469.264 443.405C466.329 441.935 456.792 437.525 440.651 430.174C437.423 428.704 431.554 426.205 423.044 422.677C414.827 419.149 408.811 416.356 404.996 414.297C401.181 412.239 396.632 409.593 391.35 406.359C386.361 402.831 382.839 399.009 380.785 394.892C378.731 390.776 377.704 384.896 377.704 377.251C377.704 369.607 380.785 362.697 386.948 356.523C393.11 350.055 401.621 346.821 412.479 346.821C436.836 346.821 456.792 353.583 472.345 367.108C487.899 380.338 495.676 397.538 495.676 418.708H504.479V338H495.676C495.676 348.291 492.741 353.436 486.872 353.436C484.817 353.436 476.014 350.937 460.46 345.938C445.2 340.646 427.886 338 408.517 338C389.442 338 372.275 344.468 357.015 357.405C341.754 370.048 332.951 387.983 330.603 411.21C328.549 434.438 336.619 453.108 354.814 467.221C363.911 474.277 379.611 482.95 401.914 493.241C424.217 503.238 439.918 510.588 449.015 515.292C465.742 524.407 474.106 535.432 474.106 548.369C474.106 559.836 470.438 569.097 463.101 576.154C456.058 582.916 446.667 586.297 434.929 586.297C406.463 586.297 382.252 576.595 362.297 557.19C342.635 537.785 332.804 514.263 332.804 486.626H324V582.619ZM160.226 526.02H224.939L190.284 453.857L160.226 526.02ZM963.865 589.694V582.619H946.891L857.071 388.061H848.23L767.251 582.619H743.558V589.694H804.028V582.619H776.091L796.602 533.449H868.033L891.726 582.619H870.862V589.694H963.865ZM864.497 526.02H799.784L829.842 453.857L864.497 526.02ZM1319.97 582.082V589.156H1226.97V582.082H1247.83L1224.14 532.912H1152.71L1132.2 582.082H1160.13V589.156H1099.66V582.082H1123.36L1204.34 387.524H1213.18L1303 582.082H1319.97ZM1155.89 525.483H1220.6L1185.95 453.32L1155.89 525.483Z" fill="#FAFAFA"/>
</svg>
